<svg xmlns="http://www.w3.org/2000/svg" xmlns:xlink="http://www.w3.org/1999/xlink" version="1.1" x="0px" y="0px" viewBox="0 0 72 72" style="enable-background:new 0 0 72 72;" xml:space="preserve"><g><path d="M67,52.48h-3.56v-29.1c0-1.65-1.34-2.99-2.99-2.99H54.7v-8.3c0-0.41-0.34-0.75-0.75-0.75H18.05   c-0.41,0-0.75,0.34-0.75,0.75v8.3h-5.75c-1.65,0-2.99,1.34-2.99,2.99v29.1H5c-0.41,0-0.75,0.34-0.75,0.75v2.99   c0,2.45,1.99,4.44,4.44,4.44h54.62c2.45,0,4.44-1.99,4.44-4.44v-2.99C67.75,52.82,67.41,52.48,67,52.48z M60.45,21.89   c0.82,0,1.49,0.67,1.49,1.49v29.1H54.7V21.89H60.45z M18.8,18.97H53.2v33.51H18.8V18.97z M53.2,12.84v4.63H18.8v-4.63H53.2z    M10.06,23.38c0-0.82,0.67-1.49,1.49-1.49h5.75v30.59h-7.24V23.38z M66.25,56.22c0,1.62-1.32,2.94-2.94,2.94H8.69   c-1.62,0-2.94-1.32-2.94-2.94v-2.24h3.54c0.01,0,0.01,0,0.02,0h53.38c0.01,0,0.01,0,0.02,0h3.54V56.22z"></path><path d="M38.23,55.82h-4.46c-0.41,0-0.75,0.34-0.75,0.75s0.34,0.75,0.75,0.75h4.46c0.41,0,0.75-0.34,0.75-0.75   S38.65,55.82,38.23,55.82z"></path><path d="M28.72,22.08H23.1c-0.41,0-0.75,0.34-0.75,0.75v5.61c0,0.41,0.34,0.75,0.75,0.75h5.61c0.41,0,0.75-0.34,0.75-0.75v-5.61   C29.47,22.41,29.13,22.08,28.72,22.08z M27.97,27.69h-4.11v-4.11h4.11V27.69z"></path><path d="M28.72,32.27H23.1c-0.41,0-0.75,0.34-0.75,0.75v5.61c0,0.41,0.34,0.75,0.75,0.75h5.61c0.41,0,0.75-0.34,0.75-0.75v-5.61   C29.47,32.61,29.13,32.27,28.72,32.27z M27.97,37.88h-4.11v-4.11h4.11V37.88z"></path><path d="M28.72,42.46H23.1c-0.41,0-0.75,0.34-0.75,0.75v5.61c0,0.41,0.34,0.75,0.75,0.75h5.61c0.41,0,0.75-0.34,0.75-0.75v-5.61   C29.47,42.8,29.13,42.46,28.72,42.46z M27.97,48.08h-4.11v-4.11h4.11V48.08z"></path><path d="M48.47,22.95h-8.24c-0.41,0-0.75,0.34-0.75,0.75s0.34,0.75,0.75,0.75h8.24c0.41,0,0.75-0.34,0.75-0.75   S48.88,22.95,48.47,22.95z"></path><path d="M33.77,24.45h3.52c0.41,0,0.75-0.34,0.75-0.75s-0.34-0.75-0.75-0.75h-3.52c-0.41,0-0.75,0.34-0.75,0.75   S33.35,24.45,33.77,24.45z"></path><path d="M48.47,26.82h-14.7c-0.41,0-0.75,0.34-0.75,0.75s0.34,0.75,0.75,0.75h14.7c0.41,0,0.75-0.34,0.75-0.75   S48.88,26.82,48.47,26.82z"></path><path d="M48.47,33.14h-8.24c-0.41,0-0.75,0.34-0.75,0.75s0.34,0.75,0.75,0.75h8.24c0.41,0,0.75-0.34,0.75-0.75   S48.88,33.14,48.47,33.14z"></path><path d="M33.77,34.64h3.52c0.41,0,0.75-0.34,0.75-0.75s-0.34-0.75-0.75-0.75h-3.52c-0.41,0-0.75,0.34-0.75,0.75   S33.35,34.64,33.77,34.64z"></path><path d="M48.47,37.01h-14.7c-0.41,0-0.75,0.34-0.75,0.75s0.34,0.75,0.75,0.75h14.7c0.41,0,0.75-0.34,0.75-0.75   S48.88,37.01,48.47,37.01z"></path><path d="M48.47,43.33h-8.24c-0.41,0-0.75,0.34-0.75,0.75s0.34,0.75,0.75,0.75h8.24c0.41,0,0.75-0.34,0.75-0.75   S48.88,43.33,48.47,43.33z"></path><path d="M33.77,44.83h3.52c0.41,0,0.75-0.34,0.75-0.75s-0.34-0.75-0.75-0.75h-3.52c-0.41,0-0.75,0.34-0.75,0.75   S33.35,44.83,33.77,44.83z"></path><path d="M48.47,47.21h-14.7c-0.41,0-0.75,0.34-0.75,0.75s0.34,0.75,0.75,0.75h14.7c0.41,0,0.75-0.34,0.75-0.75   S48.88,47.21,48.47,47.21z"></path><path d="M49.51,15.83h0.73c0.41,0,0.75-0.34,0.75-0.75s-0.34-0.75-0.75-0.75h-0.73c-0.41,0-0.75,0.34-0.75,0.75   S49.1,15.83,49.51,15.83z"></path><path d="M45.63,15.83h0.73c0.41,0,0.75-0.34,0.75-0.75s-0.34-0.75-0.75-0.75h-0.73c-0.41,0-0.75,0.34-0.75,0.75   S45.21,15.83,45.63,15.83z"></path><path d="M41.74,15.83h0.73c0.41,0,0.75-0.34,0.75-0.75s-0.34-0.75-0.75-0.75h-0.73c-0.41,0-0.75,0.34-0.75,0.75   S41.32,15.83,41.74,15.83z"></path></g></svg>