<svg xmlns="http://www.w3.org/2000/svg" xmlns:xlink="http://www.w3.org/1999/xlink" version="1.1" x="0px" y="0px" viewBox="0 0 100 100" style="enable-background:new 0 0 100 100;" xml:space="preserve"><path d="M62.4541016,55.0869141l-8.7275391-0.0234375l5.7099609-13.4414062  c0.1318359-0.3085938,0.0996094-0.6621094-0.0859375-0.9423828s-0.4980469-0.4482422-0.8339844-0.4482422H39.8349609  c-0.5087891,0-0.9355469,0.3808594-0.9931641,0.8867188l-2.2851562,19.9726562  c-0.0322266,0.28125,0.0566406,0.5644531,0.2451172,0.7763672c0.1884766,0.2128906,0.4580078,0.3349609,0.7421875,0.3369141  l4.3466797,0.0263672l-2.2519531,14.9951172c-0.0634766,0.4248047,0.1513672,0.8427734,0.5332031,1.0380859  c0.1445312,0.0742188,0.3007812,0.1103516,0.4560547,0.1103516c0.2548828,0,0.5068359-0.0976562,0.6982422-0.2841797  l21.8232422-21.2871094c0.2910156-0.2832031,0.3808594-0.7148438,0.2285156-1.0917969  C63.2255859,55.3349609,62.8603516,55.0878906,62.4541016,55.0869141z M42.0585938,74.5820312l1.9814453-13.1962891  c0.0429688-0.2871094-0.0410156-0.578125-0.2294922-0.7988281c-0.1884766-0.2197266-0.4638672-0.3476562-0.7539062-0.3496094  l-4.3867188-0.0263672l2.0576172-17.9794922h16.2773438l-5.7080078,13.4375  c-0.1318359,0.3076172-0.0996094,0.6611328,0.0849609,0.9414062c0.1845703,0.2792969,0.4970703,0.4482422,0.8320312,0.4492188  l7.7871094,0.0205078L42.0585938,74.5820312z"></path><path d="M88.7714844,86.1289062c1.4980469-2.4238281,1.6318359-5.3925781,0.3574219-7.9414062L57.2958984,14.5117188  C55.9042969,11.7285156,53.1064453,10,49.9951172,10c-3.1103516,0-5.9082031,1.7285156-7.2998047,4.5117188L10.8613281,78.1875  c-1.2744141,2.5488281-1.140625,5.5175781,0.3574219,7.9414062S15.3125,90,18.1611328,90h63.6679688  C84.6787109,90,87.2734375,88.5527344,88.7714844,86.1289062z M81.8291016,88H18.1611328  c-2.1503906,0-4.1103516-1.0927734-5.2412109-2.9228516s-1.2314453-4.0712891-0.2695312-5.9951172L44.484375,15.40625  C45.5507812,13.2734375,47.6113281,12,49.9951172,12c2.3847656,0,4.4453125,1.2734375,5.5117188,3.40625l31.8330078,63.6757812  c0.9619141,1.9238281,0.8613281,4.1660156-0.2695312,5.9960938C85.9394531,86.9072266,83.9804688,88,81.8291016,88z"></path></svg>