<svg xmlns="http://www.w3.org/2000/svg" viewBox="0 0 64 64" x="0px" y="0px"><g data-name="Electric charging"><path d="M37,18a1,1,0,0,0,1-1V7a1,1,0,0,0-1-1H7A1,1,0,0,0,6,7V17a1,1,0,0,0,1,1ZM8,8H36v8H8Z"></path><path d="M61,12H60V9a1,1,0,0,0-2,0v3H56V9a1,1,0,0,0-2,0v3H53a1,1,0,0,0-1,1v4a5.009,5.009,0,0,0,4,4.9V50a5,5,0,0,1-10,0V31a5.006,5.006,0,0,0-5-5H37.664l.194-4.087A5,5,0,0,0,42,17V7a5.006,5.006,0,0,0-5-5H7A5.006,5.006,0,0,0,2,7V17a5,5,0,0,0,4.142,4.913L8,61.047A1,1,0,0,0,9,62H35a1,1,0,0,0,1-.953L37.569,28H41a3,3,0,0,1,3,3V50a7,7,0,0,0,14,0V21.9A5.009,5.009,0,0,0,62,17V13A1,1,0,0,0,61,12ZM4,17V7A3,3,0,0,1,7,4H37a3,3,0,0,1,3,3V17a3,3,0,0,1-3,3H7A3,3,0,0,1,4,17ZM34.046,60H9.954L8.149,22h27.7ZM60,17a3,3,0,0,1-6,0V14h6Z"></path><path d="M29.477,28H17.246L12.674,44H19.78L17.2,56.913,32.058,38H25.477ZM27.942,40,20.8,49.087,22.22,42H15.326l3.428-12h7.769l-4,10Z"></path></g></svg>