<svg xmlns="http://www.w3.org/2000/svg" xmlns:xlink="http://www.w3.org/1999/xlink" version="1.1" x="0px" y="0px" viewBox="0 0 100 100" style="enable-background:new 0 0 100 100;" xml:space="preserve"><style type="text/css">
	.st0{fill:#1D1D1B;}
	.st1{fill:none;}
</style><path class="st0" d="M33.4,69.8h-7.1l4.3-5.2c0.2-0.3,0.2-0.8-0.1-1c-0.3-0.2-0.7-0.2-1,0.1L26,68V55.5c0-0.4-0.3-0.7-0.7-0.7  c-0.4,0-0.7,0.3-0.7,0.7v15c0,0.4,0.3,0.7,0.7,0.7h8.1c0.4,0,0.7-0.3,0.7-0.7C34.1,70.1,33.8,69.8,33.4,69.8z"></path><path class="st0" d="M74.6,34.7c0,0,0-0.1,0-0.1c0,0,0-0.1-0.1-0.1c0,0,0,0,0-0.1c0,0,0,0,0,0c0,0-0.1-0.1-0.1-0.1  c0,0-0.1-0.1-0.1-0.1c0,0-0.1,0-0.1,0c0,0-0.1,0-0.1,0c0,0,0,0-0.1,0H35.6c-0.4,0-0.7,0.3-0.7,0.7s0.3,0.7,0.7,0.7h36.2L49.6,51.8  l-11.2-8.2c-0.3-0.2-0.8-0.2-1,0.2c-0.2,0.3-0.2,0.8,0.2,1l4.8,3.5l-5.7,6.9c-0.2,0.3-0.2,0.8,0.1,1c0.1,0.1,0.3,0.2,0.5,0.2  c0.2,0,0.4-0.1,0.5-0.3l5.7-6.9l5.7,4.2c0.1,0.1,0.3,0.1,0.4,0.1s0.3,0,0.4-0.1l5.7-4.2l17.2,20.7h-19c-0.4,0-0.7,0.3-0.7,0.7  c0,0.4,0.3,0.7,0.7,0.7h20.1c0.4,0,0.7-0.3,0.7-0.7L74.6,34.7C74.6,34.7,74.6,34.7,74.6,34.7z M73.2,36.2V68L56.8,48.2L73.2,36.2z"></path><path class="st0" d="M47.5,64.5c-0.1-0.2-0.3-0.3-0.5-0.3c-0.2,0-0.4,0-0.6,0.1c0,0-3.8,2.9-6.8,0.3c-3.4-2.9-8.8-11.7-8.9-16.8  c0-2.2,3.5-4.6,4.9-5.3c0.3-0.2,0.5-0.6,0.3-0.9L31.9,32c-0.1-0.2-0.2-0.3-0.4-0.4c-0.2-0.1-0.4-0.1-0.6,0  c-0.3,0.1-7.6,3.7-7.2,10.1c0.7,10,9.6,27.1,17.3,33.3c1.6,1.3,3.4,1.8,5.1,1.8c3.5,0,6.5-2.1,6.6-2.1c0.3-0.2,0.4-0.6,0.2-0.9  L47.5,64.5z M42,74c-7.5-6-16.1-22.7-16.8-32.3c-0.3-4.4,4-7.4,5.7-8.4l3.6,8.3c-1.4,0.9-5.1,3.3-5,6.3c0.1,5.5,5.7,14.8,9.4,17.9  c2.8,2.3,6.1,1.3,7.9,0.2l4.6,8.1C49.8,74.8,45.5,76.9,42,74z"></path></svg>