<svg xmlns="http://www.w3.org/2000/svg" xmlns:xlink="http://www.w3.org/1999/xlink" version="1.1" x="0px" y="0px" viewBox="0 0 100 100" style="enable-background:new 0 0 100 100;" xml:space="preserve"><style type="text/css">
	.st0{fill:none;stroke:#000000;stroke-width:2;stroke-linecap:round;stroke-linejoin:round;stroke-miterlimit:10;}
</style><path d="M62.7,77.2l-3.2-1.5l3.3-1.9c0.5-0.3,0.6-0.9,0.4-1.4c-0.3-0.5-0.9-0.6-1.4-0.4l-4.9,2.8c-0.3,0.2-0.5,0.5-0.5,0.9  c0,0.4,0.2,0.7,0.6,0.9l3.3,1.6l-3.5,2.3c-0.5,0.3-0.6,0.9-0.3,1.4c0.2,0.3,0.5,0.4,0.8,0.4c0.2,0,0.4-0.1,0.6-0.2l5-3.3  c0.3-0.2,0.5-0.5,0.4-0.9S63,77.4,62.7,77.2z"></path><path d="M52.7,10.5h-5c-1.3,0-2.3,1-2.3,2.3v0.8c-7.2,2-12.2,8.4-12.5,16c-1,0.5-1.7,1.5-1.7,2.7v3.4c0,1.7,1.4,3.1,3.1,3.1h1.3  c0.1,5.4,2.8,10,6.8,12.7v4.6c-1.6,0.1-5.9,0.7-10,4.5c-5.6,5.2-8.5,14.1-8.7,26.5c0,0.3,0.1,0.5,0.3,0.7c0.2,0.2,0.4,0.3,0.7,0.3  h51.5c0,0,0,0,0,0c0.1,0,0.1,0,0.2,0c0.1,0,0.1,0,0.2,0c0.1,0,0.1-0.1,0.2-0.1c0.1,0,0.1-0.1,0.2-0.1c0,0,0.1-0.1,0.1-0.2  c0-0.1,0.1-0.1,0.1-0.2c0-0.1,0-0.1,0-0.2c0-0.1,0-0.1,0-0.2c0,0,0,0,0,0c0,0,0,0,0,0c-0.2-12.2-3.1-21.1-8.7-26.3  c-5-4.7-10.3-4.7-10.9-4.7v-4.6c4-2.7,6.7-7.3,6.8-12.7h1.4c1.7,0,3.1-1.4,3.1-3.1v-3.4c0-1.2-0.7-2.2-1.7-2.7  C67.2,22,62.2,15.6,55,13.7v-0.9C55,11.5,54,10.5,52.7,10.5z M47.7,12.5h5c0.2,0,0.3,0.1,0.3,0.3v16.4h-5.5V12.8  C47.4,12.6,47.6,12.5,47.7,12.5z M45.4,15.7v13.5H35C35.4,22.9,39.5,17.5,45.4,15.7z M68.3,86.1H51.2V70.9c0-1.1,0.7-2,1.7-2.5  c3.4-1.5,6.2-5.8,6.2-9.7c0-0.1,0-0.3,0-0.4l0-0.1c0.9,0.1,2.1,0.4,3.6,1c-2.5,4.8,1.2,11,4.1,13.1c1,0.8,1.6,1.7,1.6,2.7V86.1z   M38.6,59.1C38.6,59.1,38.6,59.1,38.6,59.1c1-0.5,1.9-0.7,2.7-0.8c0,0.1,0,0.3,0,0.4c0,3.9,2.8,8.2,6.2,9.7c1,0.4,1.7,1.4,1.7,2.5  v15.2H33V75c0-1,0.6-2,1.6-2.7C37.4,70.1,41.2,63.9,38.6,59.1z M57,59.6c-0.4,2.6-2.3,5.7-4.9,6.9c-0.8,0.3-1.4,0.8-1.9,1.5  c-0.5-0.6-1.1-1.1-1.9-1.5c-2.6-1.1-4.5-4.2-4.9-6.8l0.3,0.2c2,1.2,4.2,1.9,6.5,1.9c2.3,0,4.5-0.6,6.5-1.9L57,59.6z M33.9,62.1  c1-0.9,2-1.6,3-2.2c0,0,0,0.1,0,0.1c2,3.7-1.3,8.9-3.5,10.6C31.9,71.8,31,73.3,31,75v11.1h-5.1C26.2,74.9,28.9,66.8,33.9,62.1z   M75.4,86.1h-5.1V75c0-1.7-0.9-3.2-2.4-4.3c-2.2-1.7-5.5-6.9-3.5-10.6c0,0,0,0,0,0c1,0.6,2,1.3,3,2.2C72.4,66.9,75.1,75,75.4,86.1z   M55.8,58l-0.2,0.1c-3.4,2.1-7.5,2.1-10.9,0L44.5,58v-5.4c1.7,0.8,3.6,1.2,5.7,1.2s3.9-0.4,5.7-1.2V58z M50.2,51.9  c-6.8,0-12.3-5.8-12.5-13.1h25C62.4,46,56.9,51.9,50.2,51.9z M67.2,35.7c0,0.6-0.5,1.1-1.1,1.1H34.4c-0.6,0-1.1-0.5-1.1-1.1v-3.4  c0-0.6,0.5-1.1,1.1-1.1h31.7c0.6,0,1.1,0.5,1.1,1.1V35.7z M65.5,29.2H55V15.8C60.9,17.6,65.1,22.9,65.5,29.2z"></path></svg>