<svg xmlns="http://www.w3.org/2000/svg" xmlns:xlink="http://www.w3.org/1999/xlink" version="1.1" x="0px" y="0px" viewBox="0 0 512 512" enable-background="new 0 0 512 512" xml:space="preserve"><g><path d="M393.88,208.642c0-0.541,0.012-1.081,0.022-1.622c0.013-0.609,0.024-1.218,0.025-1.832   c0-75.814-61.671-137.493-137.475-137.493c-75.779,0-137.429,61.679-137.429,137.493c0,1.212,0.001,2.426,0.036,3.571   c0.98,49.877,22.313,78.238,42.943,105.667c19.528,25.963,37.974,50.486,37.979,92.532c0,0.006-0.001,0.011-0.001,0.016v28.741   v28.789c0,3.313,2.686,6,6,6h4.868c3.54,17.9,22.638,31.619,45.604,31.619c22.982,0,42.095-13.719,45.637-31.619h4.867   c3.313,0,6-2.687,6-6v-28.789v-28.741c0-42.054,18.448-66.579,37.98-92.545c20.633-27.429,41.968-55.791,42.942-105.67   C393.88,208.72,393.88,208.681,393.88,208.642z M300.956,429.716h-88.975v-16.741h88.975V429.716z M300.956,458.505h-4.272h-80.43   h-4.273v-16.789h88.975V458.505z M256.452,490.124c-16.099,0-29.636-8.378-33.251-19.619h66.535   C286.117,481.746,272.567,490.124,256.452,490.124z M381.905,206.773c-0.013,0.603-0.024,1.206-0.025,1.809   c-0.914,45.963-20.159,71.549-40.533,98.635c-18.979,25.231-38.577,51.281-40.272,93.758h-89.211   c-1.695-42.478-21.291-68.529-40.27-93.762c-20.381-27.096-39.632-52.69-40.538-98.754c-0.033-1.089-0.032-2.18-0.032-3.27   c0-69.197,56.267-125.493,125.429-125.493c69.187,0,125.475,56.296,125.475,125.488   C381.928,205.713,381.916,206.244,381.905,206.773z"></path><path d="M256.498,56.75c3.313,0,6-2.687,6-6V16.829c0-3.313-2.687-6-6-6s-6,2.687-6,6V50.75   C250.498,54.063,253.185,56.75,256.498,56.75z"></path><path d="M174.102,74.437c1.112,1.924,3.128,3,5.201,3c1.019,0,2.051-0.26,2.996-0.806c2.869-1.658,3.852-5.328,2.194-8.197   l-16.965-29.365c-1.658-2.87-5.327-3.85-8.197-2.194c-2.869,1.658-3.852,5.328-2.194,8.197L174.102,74.437z"></path><path d="M90.405,116.183l29.35,16.961c0.945,0.546,1.978,0.806,2.997,0.806c2.072,0,4.089-1.075,5.2-2.999   c1.658-2.869,0.676-6.539-2.193-8.197l-29.35-16.961c-2.868-1.658-6.539-0.677-8.197,2.193   C86.554,110.854,87.536,114.524,90.405,116.183z"></path><path d="M108.083,205.188c0-3.313-2.687-6-6-6H68.178c-3.313,0-6,2.687-6,6s2.687,6,6,6h33.905   C105.396,211.188,108.083,208.501,108.083,205.188z"></path><path d="M119.754,277.235l-29.35,16.967c-2.869,1.658-3.85,5.328-2.191,8.197c1.112,1.923,3.127,2.998,5.2,2.998   c1.019,0,2.052-0.26,2.998-0.807l29.35-16.967c2.869-1.658,3.85-5.328,2.191-8.197   C126.292,276.559,122.623,275.576,119.754,277.235z"></path><path d="M330.707,76.635c0.943,0.543,1.972,0.801,2.987,0.801c2.076,0,4.096-1.079,5.206-3.007l16.905-29.365   c1.653-2.872,0.665-6.54-2.207-8.193c-2.872-1.655-6.54-0.665-8.193,2.206L328.5,68.441   C326.847,71.313,327.835,74.981,330.707,76.635z"></path><path d="M390.187,133.997c1.019,0,2.052-0.26,2.997-0.807l29.35-16.967c2.869-1.658,3.85-5.329,2.191-8.197   c-1.657-2.867-5.326-3.85-8.197-2.191l-29.35,16.967c-2.869,1.658-3.85,5.329-2.191,8.197   C386.098,132.922,388.113,133.997,390.187,133.997z"></path><path d="M444.76,199.236h-33.904c-3.313,0-6,2.687-6,6s2.687,6,6,6h33.904c3.313,0,6-2.687,6-6S448.073,199.236,444.76,199.236z"></path><path d="M422.487,294.202l-29.351-16.967c-2.872-1.66-6.54-0.677-8.197,2.191c-1.658,2.869-0.678,6.539,2.191,8.197l29.351,16.967   c0.946,0.547,1.979,0.807,2.997,0.807c2.072,0,4.089-1.075,5.2-2.998C426.337,299.53,425.356,295.86,422.487,294.202z"></path></g></svg>