<svg xmlns="http://www.w3.org/2000/svg" data-name="Laag 2" viewBox="0 0 500 500" x="0px" y="0px"><title>Tekengebied 9</title><path d="M254.94,423.4l-2.56-2.72C247.6,415.6,135.5,295.58,135.5,229.05c0-68.88,52.46-122.84,119.43-122.84,32.58,0,62.69,12.8,84.79,36C361.5,165.17,373.5,196,373.5,229.05c0,66.52-111.28,186.54-116,191.62Zm0-310.19c-63,0-112.43,50.88-112.43,115.84,0,33.09,31.15,82,57.27,117.25,23.6,31.82,47.45,58.41,55.14,66.82,7.65-8.43,31.34-35,54.77-66.86C335.6,311,366.5,262.13,366.5,229.05c0-31.25-11.31-60.36-31.86-82C313.88,125.24,285.57,113.22,254.93,113.22Z"></path><path d="M254.93,254.71a43.56,43.56,0,1,1,43.56-43.56A43.61,43.61,0,0,1,254.93,254.71Zm0-80.13a36.56,36.56,0,1,0,36.56,36.56A36.6,36.6,0,0,0,254.93,174.59Z"></path></svg>