<svg xmlns="http://www.w3.org/2000/svg" xmlns:xlink="http://www.w3.org/1999/xlink" version="1.1" x="0px" y="0px" viewBox="0 0 100 100" style="enable-background:new 0 0 100 100;" xml:space="preserve"><style type="text/css">
	.st0{fill:none;stroke:#000000;stroke-width:2;stroke-linecap:round;stroke-linejoin:round;stroke-miterlimit:10;}
	.st1{fill:none;stroke:#000000;stroke-width:1.8;stroke-linecap:round;stroke-linejoin:round;stroke-miterlimit:10;}
</style><path d="M35.1,41c0.5,0.3,1.1,0.1,1.4-0.4L50,17.2l13.1,22.7l-3.6-1.2c-0.5-0.2-1.1,0.1-1.3,0.6c-0.2,0.5,0.1,1.1,0.6,1.3l5.9,1.9  c0.1,0,0.2,0,0.3,0c0.2,0,0.3,0,0.5-0.1c0.2-0.1,0.4-0.3,0.5-0.6L68,36c0.2-0.5-0.1-1.1-0.6-1.3c-0.5-0.2-1.1,0.1-1.3,0.6L64.9,39  L50.9,14.7c-0.4-0.6-1.4-0.6-1.7,0L34.7,39.7C34.4,40.1,34.6,40.8,35.1,41z"></path><path d="M72.7,52.4c-0.3-0.5-0.9-0.6-1.4-0.4c-0.5,0.3-0.6,0.9-0.4,1.4l15.5,26.7H57.6l3-2.7c0.4-0.4,0.5-1,0.1-1.4  c-0.4-0.4-1-0.5-1.4-0.1l-4.7,4.1c-0.2,0.2-0.3,0.4-0.3,0.7c0,0.3,0.1,0.5,0.2,0.7l4.1,4.7c0.2,0.2,0.5,0.3,0.8,0.3  c0.2,0,0.5-0.1,0.7-0.2c0.4-0.4,0.5-1,0.1-1.4l-2.4-2.7h30.5c0.4,0,0.7-0.2,0.9-0.5c0.2-0.3,0.2-0.7,0-1L72.7,52.4z"></path><path d="M11.8,82.2h31.8c0.6,0,1-0.4,1-1s-0.4-1-1-1H13.5L28.7,54l1.2,3.7c0.1,0.4,0.5,0.7,0.9,0.7c0.1,0,0.2,0,0.3,0  c0.5-0.2,0.8-0.7,0.6-1.3l-2-5.9c-0.1-0.3-0.3-0.5-0.5-0.6c-0.2-0.1-0.5-0.1-0.8-0.1l-5.9,2c-0.5,0.2-0.8,0.7-0.6,1.3  c0.2,0.5,0.7,0.8,1.3,0.6l3.6-1.2l-16,27.6c-0.2,0.3-0.2,0.7,0,1C11.1,82,11.5,82.2,11.8,82.2z"></path></svg>