<svg xmlns="http://www.w3.org/2000/svg" xmlns:xlink="http://www.w3.org/1999/xlink" version="1.1" x="0px" y="0px" viewBox="0 0 69 69" style="enable-background:new 0 0 69 69;" xml:space="preserve"><g><path d="M54.29272,48.41577c-0.98633,0-1.80859,0.73779-1.91211,1.70996c-0.00684,0.07227-0.01074,0.14111-0.01074,0.21338   c0,1.06104,0.8623,1.92383,1.92285,1.92383s1.92383-0.86279,1.92383-1.92383c0-0.06689-0.00293-0.13037-0.01172-0.20703   C56.10229,49.16968,55.26245,48.41577,54.29272,48.41577z"></path><path d="M18.56128,48.41577c-0.96973,0-1.80957,0.75391-1.91211,1.70996c-0.00684,0.07227-0.01074,0.14111-0.01074,0.21338   c0,1.06104,0.8623,1.92383,1.92285,1.92383s1.92383-0.86279,1.92383-1.92383c0-0.06689-0.00293-0.13037-0.01172-0.2085   C20.36987,49.15308,19.54761,48.41577,18.56128,48.41577z"></path><path d="M57.99707,20.11328h-9.7998V18.7373c0-3.1709-2.5791-5.75-5.75-5.75H3.5c-0.41406,0-0.75,0.33594-0.75,0.75v27.28906   c0,0.41406,0.33594,0.75,0.75,0.75h3.10449v5.22461c0,1.96484,1.59863,3.56348,3.56348,3.56348h2.7312   c0.06177,1.56067,0.75415,2.95825,1.83203,3.94824H3.5c-0.41406,0-0.75,0.33594-0.75,0.75s0.33594,0.75,0.75,0.75h62   c0.41406,0,0.75-0.33594,0.75-0.75s-0.33594-0.75-0.75-0.75h-7.37671c1.07788-0.98999,1.77026-2.38757,1.83203-3.94824h2.7312   c1.96484,0,3.56348-1.59863,3.56348-3.56348c0-10.65513,0-8.31064,0-18.63477C66.25,23.81543,62.54785,20.11328,57.99707,20.11328z    M4.25,14.4873h38.19727c2.34375,0,4.25,1.90625,4.25,4.25c0,5.43095,0,16.2473,0,21.53906H7.35449H4.25V14.4873z    M14.3877,50.33887c0-2.30396,1.85578-4.17285,4.17383-4.17285c2.32422,0,4.17383,1.87573,4.17383,4.17285   c0,2.30176-1.87207,4.17383-4.17383,4.17383S14.3877,52.64063,14.3877,50.33887z M22.39185,54.5127   c1.07788-0.98999,1.77026-2.38757,1.83203-3.94824h24.40674c0.06177,1.56067,0.75415,2.95825,1.83203,3.94824H22.39185z    M54.29297,54.5127c-2.30176,0-4.17383-1.87207-4.17383-4.17383c0-2.30396,1.85578-4.17285,4.17383-4.17285   c2.32422,0,4.17383,1.87573,4.17383,4.17285C58.4668,52.64063,56.59473,54.5127,54.29297,54.5127z M64.75,47.00098   c0,1.1377-0.92578,2.06348-2.06348,2.06348h-2.86426c-0.56379-2.47887-2.85772-4.39844-5.5293-4.39844   c-2.72886,0-4.98431,2.02263-5.5293,4.39844H24.09082c-0.555-2.44024-2.82289-4.39844-5.5293-4.39844   c-2.63846,0-4.95046,1.87506-5.5293,4.39844h-2.86426c-1.1377,0-2.06348-0.92578-2.06348-2.06348v-5.22461   c9.1072,0,50.09859,0,56.64551,0V47.00098z M64.75,40.27637H48.19727V21.61328h9.7998c3.72363,0,6.75293,3.0293,6.75293,6.75293   V40.27637z"></path><path d="M57.99805,23.58301h-6.7998c-0.41406,0-0.75,0.33594-0.75,0.75v6.9209c0,0.41406,0.33594,0.75,0.75,0.75h10.55078   c0.41406,0,0.75-0.33594,0.75-0.75v-3.16895C62.49902,25.60254,60.47949,23.58301,57.99805,23.58301z M60.99902,30.50391h-9.05078   v-5.4209h6.0498c1.6543,0,3.00098,1.34668,3.00098,3.00195V30.50391z"></path><path d="M54.28906,35.64355h-3.09082c-0.41406,0-0.75,0.33594-0.75,0.75s0.33594,0.75,0.75,0.75h3.09082   c0.41406,0,0.75-0.33594,0.75-0.75S54.70313,35.64355,54.28906,35.64355z"></path><path d="M21.87891,23.05078c0.3584,0.20996,0.81543,0.08984,1.02734-0.26563l1.94336-3.2998   c0.05273-0.08691,0.10547-0.14941,0.18066-0.20801c0.25098-0.20898,0.64355-0.20898,0.91211,0.01367   c0.05566,0.04395,0.1084,0.10742,0.18359,0.23047l1.58826,2.70874l-0.84607-0.27808   c-0.39648-0.12988-0.81738,0.08594-0.94727,0.47852c-0.12891,0.39355,0.08496,0.81738,0.47852,0.94727l2.76367,0.9082   c0.23586,0.07464,0.4739,0.03294,0.66113-0.09668c0.19336-0.13379,0.3125-0.35059,0.32227-0.58496l0.12695-3.05762   c0.01758-0.41406-0.30371-0.76367-0.71777-0.78027c-0.40137-0.05273-0.76367,0.30371-0.78027,0.71777l-0.02295,0.55078   l-1.37061-2.33691c-0.14844-0.24023-0.31641-0.43164-0.49707-0.57324c-0.80176-0.66992-2.01367-0.66797-2.7959-0.01563   c-0.19922,0.15527-0.36816,0.34766-0.55371,0.65234l-1.92188,3.26172C21.40332,22.38086,21.52246,22.83984,21.87891,23.05078z"></path><path d="M17.37793,35.31738h6.06738c0.41406,0,0.75-0.33594,0.75-0.75s-0.33594-0.75-0.75-0.75h-6.06738   c-0.53011,0-0.92154-0.58457-0.62695-1.08594l3.10083-5.26697l0.14722,0.85876c0.06733,0.39344,0.43705,0.68058,0.86621,0.6123   c0.4082-0.07031,0.68262-0.45801,0.6123-0.86621l-0.48438-2.82422c-0.03809-0.2207-0.17188-0.41211-0.36621-0.52344   c-0.10925-0.06372-0.23193-0.08887-0.3562-0.09143c-0.12646-0.00989-0.2478,0.01855-0.36206,0.07031l-2.60107,0.9762   c-0.3877,0.14551-0.58398,0.57813-0.43848,0.96582s0.5791,0.58301,0.96582,0.43848l0.6438-0.24182l-3.02075,5.13245   C14.57798,33.46915,15.67923,35.31738,17.37793,35.31738z"></path><path d="M30.35352,26.19531l3.84961,6.53613c0.2839,0.66553-0.18059,1.08594-0.62695,1.08594h-3.98218l0.60132-0.49707   c0.31934-0.26367,0.36426-0.73633,0.10059-1.05566c-0.26465-0.32031-0.73828-0.36328-1.05566-0.10059l-2.20898,1.8252   c-0.14871,0.12322-0.27246,0.3487-0.27246,0.57813c0,0.19154,0.08194,0.39914,0.25244,0.55225   c0.16182,0.14975,1.60526,1.33401,2.229,1.85205c0.32101,0.26488,0.7927,0.21774,1.05566-0.10059   c0.26367-0.31934,0.21875-0.79199-0.10059-1.05566l-0.60205-0.49805h3.98291c1.7276,0,2.78227-1.87971,1.91992-3.3457   l-3.85156-6.54004c-0.21094-0.35547-0.66895-0.47559-1.02734-0.26367C30.26074,25.37891,30.14258,25.83887,30.35352,26.19531z"></path></g></svg>