<svg xmlns="http://www.w3.org/2000/svg" xmlns:xlink="http://www.w3.org/1999/xlink" version="1.1" x="0px" y="0px" viewBox="0 0 100 100" style="enable-background:new 0 0 100 100;" xml:space="preserve"><style type="text/css">
	.st0{fill:none;stroke:#000000;stroke-width:2;stroke-linecap:round;stroke-linejoin:round;stroke-miterlimit:10;}
	.st1{fill:none;stroke:#000000;stroke-width:1.8;stroke-linecap:round;stroke-linejoin:round;stroke-miterlimit:10;}
</style><path d="M85.2,14.5H13.9c-0.5,0-1,0.4-1,0.9l-4,50.3c0,0.3,0.1,0.6,0.3,0.8c0.2,0.2,0.5,0.3,0.7,0.3H32c2.7,5.6,8.1,9.5,14.1,10.5  V82H33.5c-0.6,0-1,0.4-1,1v5.6c0,0.6,0.4,1,1,1h32.2c0.6,0,1-0.4,1-1V83c0-0.6-0.4-1-1-1H53.1v-4.8c5.7-1.2,10.7-5,13.4-10.4h22.7  c0.3,0,0.5-0.1,0.7-0.3c0.2-0.2,0.3-0.5,0.3-0.8l-4-50.3C86.1,14.9,85.7,14.5,85.2,14.5z M58.6,64.9l-0.3-10.6h13.6l0.6,10.6H58.6z   M26.9,64.9l0.6-10.6H41l-0.3,10.6H26.9z M12.8,41.7h13.3l-0.6,10.6H12L12.8,41.7z M13.8,29.1C13.9,29.1,13.9,29.1,13.8,29.1l12.9,0  l-0.6,10.6H13L13.8,29.1z M43.4,39.7l0.3-10.6h12l0.3,10.6H43.4z M56,41.7l0.3,10.6H43.1l0.3-10.6H56z M57.7,29.1h12.9l0.6,10.6  H57.9L57.7,29.1z M57.6,27.1l-0.3-10.6h12.6l0.6,10.6H57.6z M55.6,27.1H43.8L44,16.5h11.3L55.6,27.1z M41.7,27.1H28.9l0.6-10.6H42  L41.7,27.1z M41.7,29.1l-0.3,10.6H28.2l0.6-10.6H41.7z M28.1,41.7h13.3l-0.3,10.6H27.5L28.1,41.7z M43,54.3h13.3l0.3,10.6H42.7  L43,54.3z M58.3,52.3L58,41.7h13.3l0.6,10.6H58.3z M73.3,41.7h13l0.8,10.6H73.8L73.3,41.7z M73.2,39.7l-0.6-10.6h12.7l0.8,10.6H73.2  z M85.1,27.1H72.5l-0.6-10.6h12.3L85.1,27.1z M27.4,16.5l-0.6,10.6H14l0.8-10.6H27.4z M11.8,54.3h13.6l-0.6,10.6H11L11.8,54.3z   M64.7,87.6H34.5V84h30.2V87.6z M51.1,82h-3v-4.4c0.4,0,0.8,0,1.1,0c0.6,0,1.2,0,1.9-0.1V82z M49.2,75.6c-6.2,0-11.9-3.4-15-8.8  h29.9C61.2,72.2,55.4,75.6,49.2,75.6z M74.5,64.9l-0.6-10.6h13.3l0.8,10.6H74.5z"></path></svg>