<?xml version="1.0" encoding="utf-8"?>
<!-- Generator: Adobe Illustrator 26.5.0, SVG Export Plug-In . SVG Version: 6.00 Build 0)  -->
<svg version="1.1" xmlns="http://www.w3.org/2000/svg" xmlns:xlink="http://www.w3.org/1999/xlink" x="0px" y="0px"
	 viewBox="0 0 792 792" style="enable-background:new 0 0 792 792;" xml:space="preserve">
<style type="text/css">
	.st0{clip-path:url(#SVGID_00000041272453657690326150000001335557642069599679_);}
	.st1{fill:#85C777;}
	.st2{fill:none;stroke:#FFFFFF;stroke-width:9;}
	.st3{clip-path:url(#SVGID_00000027570541953423855100000012600565919279688868_);}
	.st4{fill:#8FCE9F;}
	.st5{clip-path:url(#SVGID_00000173124840671445839640000004397652738579924901_);}
	.st6{fill:#5F843A;}
	.st7{clip-path:url(#SVGID_00000170257304700443445250000010492008584106225803_);}
	.st8{fill:#71BF4C;}
	.st9{fill:#FFFFFF;stroke:#FFFFFF;stroke-width:9;stroke-linecap:round;stroke-linejoin:round;}
	.st10{display:none;}
	.st11{display:inline;}
	
		.st12{display:inline;clip-path:url(#CLIPPING_00000096042768464843022090000007512128040181821065_);fill:url(#SVGID_00000074421344110132846400000016795605367888075150_);}
	
		.st13{display:inline;clip-path:url(#CLIPPING_00000096042768464843022090000007512128040181821065_);fill:url(#SVGID_00000119824118240704205200000002054716249463218367_);}
	
		.st14{display:inline;clip-path:url(#CLIPPING_00000096042768464843022090000007512128040181821065_);fill:url(#SVGID_00000085965270463248510110000002578327066785904807_);}
	
		.st15{display:inline;clip-path:url(#CLIPPING_00000096042768464843022090000007512128040181821065_);fill:url(#SVGID_00000026884380118417616180000008498734051632240269_);}
	
		.st16{display:inline;clip-path:url(#CLIPPING_00000096042768464843022090000007512128040181821065_);fill:url(#SVGID_00000030479658466766761840000005712540353253268149_);}
	
		.st17{display:inline;clip-path:url(#CLIPPING_00000096042768464843022090000007512128040181821065_);fill:url(#SVGID_00000110454931688673650950000009452467436714797734_);}
	
		.st18{display:inline;clip-path:url(#CLIPPING_00000096042768464843022090000007512128040181821065_);fill:url(#SVGID_00000116939636855081500990000015799841248818856837_);}
	
		.st19{display:inline;clip-path:url(#CLIPPING_00000096042768464843022090000007512128040181821065_);fill:url(#SVGID_00000140727496688336283310000013709002291958347400_);}
	.st20{display:inline;clip-path:url(#CLIPPING_00000096042768464843022090000007512128040181821065_);}
	.st21{fill:none;stroke:#FFFFFF;stroke-width:9;stroke-linecap:round;stroke-linejoin:round;}
	.st22{fill:#AABC3A;}
	.st23{fill:#FFFFFF;}
	.st24{fill:#8FCE9F;stroke:#FFFFFF;stroke-width:9;}
	.st25{fill:#282867;}
</style>
<g id="Layer_8">
	<g>
		<defs>
			<rect id="SVGID_1_" x="36.3" y="59.8" width="336.4" height="349.9"/>
		</defs>
		<clipPath id="SVGID_00000163048217548073652580000016135212572218857628_">
			<use xlink:href="#SVGID_1_"  style="overflow:visible;"/>
		</clipPath>
		<g style="clip-path:url(#SVGID_00000163048217548073652580000016135212572218857628_);">
			<g>
				<path class="st1" d="M44,406c0,190.1,154.1,344.2,344.2,344.2c190.1,0,344.3-154.1,344.3-344.2c0-190.1-154.1-344.2-344.3-344.2
					C198.1,61.7,44,215.8,44,406"/>
			</g>
			<g>
				<path class="st2" d="M44,406c0,190.1,154.1,344.2,344.2,344.2c190.1,0,344.3-154.1,344.3-344.2c0-190.1-154.1-344.2-344.3-344.2
					C198.1,61.7,44,215.8,44,406"/>
			</g>
		</g>
	</g>
	<g>
		<defs>
			<rect id="SVGID_00000036954764471967400710000011013510527504824246_" x="386.5" y="47.7" width="372.4" height="336.4"/>
		</defs>
		<clipPath id="SVGID_00000053535340837481885810000003952731346834624419_">
			<use xlink:href="#SVGID_00000036954764471967400710000011013510527504824246_"  style="overflow:visible;"/>
		</clipPath>
		<g style="clip-path:url(#SVGID_00000053535340837481885810000003952731346834624419_);">
			<g>
				<path class="st4" d="M36.4,401.5c0,190.1,154.1,344.2,344.3,344.2c190.1,0,344.2-154.1,344.2-344.2
					c0-190.1-154.1-344.2-344.2-344.2C190.5,57.2,36.4,211.3,36.4,401.5"/>
			</g>
			<g>
				<path class="st2" d="M36.4,401.5c0,190.1,154.1,344.2,344.3,344.2c190.1,0,344.2-154.1,344.2-344.2
					c0-190.1-154.1-344.2-344.2-344.2C190.5,57.2,36.4,211.3,36.4,401.5"/>
			</g>
		</g>
	</g>
	<g>
		<defs>
			<rect id="SVGID_00000160168706778904185220000010873428562829503920_" x="402.7" y="398" width="331.9" height="348.8"/>
		</defs>
		<clipPath id="SVGID_00000054233021355528242020000013160209138630712741_">
			<use xlink:href="#SVGID_00000160168706778904185220000010873428562829503920_"  style="overflow:visible;"/>
		</clipPath>
		<g style="clip-path:url(#SVGID_00000054233021355528242020000013160209138630712741_);">
			<g>
				<path class="st6" d="M40.6,401.5c0,190.1,154.1,344.2,344.3,344.2c190.1,0,344.2-154.1,344.2-344.2
					c0-190.1-154.1-344.2-344.2-344.2C194.7,57.2,40.6,211.3,40.6,401.5"/>
			</g>
			<g>
				<path class="st2" d="M40.6,401.5c0,190.1,154.1,344.2,344.3,344.2c190.1,0,344.2-154.1,344.2-344.2
					c0-190.1-154.1-344.2-344.2-344.2C194.7,57.2,40.6,211.3,40.6,401.5"/>
			</g>
		</g>
	</g>
	<g>
		<defs>
			<rect id="SVGID_00000026122492132013271160000010478032399130009999_" x="11.5" y="432.8" width="371.2" height="316.1"/>
		</defs>
		<clipPath id="SVGID_00000107560793191607635280000007096558886105326225_">
			<use xlink:href="#SVGID_00000026122492132013271160000010478032399130009999_"  style="overflow:visible;"/>
		</clipPath>
		<g style="clip-path:url(#SVGID_00000107560793191607635280000007096558886105326225_);">
			<g>
				<path class="st8" d="M42.9,399.2c0,190.1,154.1,344.2,344.3,344.2c190.1,0,344.2-154.1,344.2-344.2
					C731.3,209.1,577.2,55,387.1,55C197,55,42.9,209.1,42.9,399.2"/>
			</g>
			<g>
				<path class="st2" d="M42.9,399.2c0,190.1,154.1,344.2,344.3,344.2c190.1,0,344.2-154.1,344.2-344.2
					C731.3,209.1,577.2,55,387.1,55C197,55,42.9,209.1,42.9,399.2"/>
			</g>
		</g>
	</g>
</g>
<g id="Layer_7">
	<g>
		<path class="st9" d="M449.8,617.9c-116.5,35.3-239.8-31.3-275.3-148.6C139,351.9,204.7,228.2,321.2,192.9
			c116.5-35.3,239.8,31.3,275.3,148.6C632,458.9,566.3,582.7,449.8,617.9z"/>
		<g class="st10">
			<defs>
				<path id="CLIPPING" d="M449.8,617.9c-116.5,35.3-239.8-31.3-275.3-148.6C139,351.9,204.7,228.2,321.2,192.9
					c116.5-35.3,239.8,31.3,275.3,148.6C632,458.9,566.3,582.7,449.8,617.9z"/>
			</defs>
			<clipPath id="CLIPPING_00000031918998633163157170000005561307569555517825_" class="st11">
				<use xlink:href="#CLIPPING"  style="overflow:visible;"/>
			</clipPath>
			
				<linearGradient id="SVGID_00000111893869168359204700000014858107374778066077_" gradientUnits="userSpaceOnUse" x1="160.6553" y1="405.6963" x2="211.6802" y2="405.6963">
				<stop  offset="0" style="stop-color:#DFDFE0"/>
				<stop  offset="0.5" style="stop-color:#FFFFFF"/>
				<stop  offset="1" style="stop-color:#DFDFE0"/>
			</linearGradient>
			
				<rect x="160.7" y="177.9" style="display:inline;clip-path:url(#CLIPPING_00000031918998633163157170000005561307569555517825_);fill:url(#SVGID_00000111893869168359204700000014858107374778066077_);" width="51" height="455.7"/>
			
				<linearGradient id="SVGID_00000149342490900774011870000008427191079088774064_" gradientUnits="userSpaceOnUse" x1="559.4619" y1="405.6963" x2="610.4844" y2="405.6963">
				<stop  offset="4.132230e-03" style="stop-color:#DFDFE0"/>
				<stop  offset="0.5" style="stop-color:#FFFFFF"/>
				<stop  offset="1" style="stop-color:#EEEDEE"/>
			</linearGradient>
			
				<rect x="559.5" y="177.9" style="display:inline;clip-path:url(#CLIPPING_00000031918998633163157170000005561307569555517825_);fill:url(#SVGID_00000149342490900774011870000008427191079088774064_);" width="51" height="455.7"/>
			
				<linearGradient id="SVGID_00000074409729412038362300000011096689458302741670_" gradientUnits="userSpaceOnUse" x1="502.4902" y1="405.6963" x2="553.5137" y2="405.6963">
				<stop  offset="0" style="stop-color:#DFDFE0"/>
				<stop  offset="0.5" style="stop-color:#FFFFFF"/>
				<stop  offset="1" style="stop-color:#DFDFE0"/>
			</linearGradient>
			
				<rect x="502.5" y="177.9" style="display:inline;clip-path:url(#CLIPPING_00000031918998633163157170000005561307569555517825_);fill:url(#SVGID_00000074409729412038362300000011096689458302741670_);" width="51" height="455.7"/>
			
				<linearGradient id="SVGID_00000115493492363759794800000005256294780787287960_" gradientUnits="userSpaceOnUse" x1="331.5718" y1="405.6963" x2="382.5967" y2="405.6963">
				<stop  offset="0" style="stop-color:#DFDFE0"/>
				<stop  offset="0.5" style="stop-color:#FFFFFF"/>
				<stop  offset="1" style="stop-color:#DFDFE0"/>
			</linearGradient>
			
				<rect x="331.6" y="177.9" style="display:inline;clip-path:url(#CLIPPING_00000031918998633163157170000005561307569555517825_);fill:url(#SVGID_00000115493492363759794800000005256294780787287960_);" width="51" height="455.7"/>
			
				<linearGradient id="SVGID_00000079460732716332281400000014511680503172105608_" gradientUnits="userSpaceOnUse" x1="274.5996" y1="405.6963" x2="325.6245" y2="405.6963">
				<stop  offset="0" style="stop-color:#DFDFE0"/>
				<stop  offset="0.5" style="stop-color:#FFFFFF"/>
				<stop  offset="1" style="stop-color:#DFDFE0"/>
			</linearGradient>
			
				<rect x="274.6" y="177.9" style="display:inline;clip-path:url(#CLIPPING_00000031918998633163157170000005561307569555517825_);fill:url(#SVGID_00000079460732716332281400000014511680503172105608_);" width="51" height="455.7"/>
			
				<linearGradient id="SVGID_00000070838274879587102780000005063497522466512810_" gradientUnits="userSpaceOnUse" x1="217.627" y1="405.6963" x2="268.6519" y2="405.6963">
				<stop  offset="0" style="stop-color:#DFDFE0"/>
				<stop  offset="0.5" style="stop-color:#FFFFFF"/>
				<stop  offset="1" style="stop-color:#DFDFE0"/>
			</linearGradient>
			
				<rect x="217.6" y="177.9" style="display:inline;clip-path:url(#CLIPPING_00000031918998633163157170000005561307569555517825_);fill:url(#SVGID_00000070838274879587102780000005063497522466512810_);" width="51" height="455.7"/>
			
				<linearGradient id="SVGID_00000145029991219479790380000012001316872935797935_" gradientUnits="userSpaceOnUse" x1="445.5176" y1="405.6963" x2="496.5391" y2="405.6963">
				<stop  offset="0" style="stop-color:#DFDFE0"/>
				<stop  offset="0.5" style="stop-color:#FFFFFF"/>
				<stop  offset="1" style="stop-color:#DFDFE0"/>
			</linearGradient>
			
				<rect x="445.5" y="177.9" style="display:inline;clip-path:url(#CLIPPING_00000031918998633163157170000005561307569555517825_);fill:url(#SVGID_00000145029991219479790380000012001316872935797935_);" width="51" height="455.7"/>
			
				<linearGradient id="SVGID_00000086674464533742684290000002620791252919083667_" gradientUnits="userSpaceOnUse" x1="388.5454" y1="405.6963" x2="439.5684" y2="405.6963">
				<stop  offset="0" style="stop-color:#DFDFE0"/>
				<stop  offset="0.5" style="stop-color:#FFFFFF"/>
				<stop  offset="1" style="stop-color:#DFDFE0"/>
			</linearGradient>
			
				<rect x="388.5" y="177.9" style="display:inline;clip-path:url(#CLIPPING_00000031918998633163157170000005561307569555517825_);fill:url(#SVGID_00000086674464533742684290000002620791252919083667_);" width="51" height="455.7"/>
			<g style="display:inline;clip-path:url(#CLIPPING_00000031918998633163157170000005561307569555517825_);">
				
					<image style="overflow:visible;opacity:0.86;" width="557" height="560" xlink:href="B27C6932E8615D7F.png"  transform="matrix(1 0 0 1 107.2632 125.7983)">
				</image>
				<g>
					<path class="st21" d="M449.8,617.9c-116.5,35.3-239.8-31.3-275.3-148.6C139,351.9,204.7,228.2,321.2,192.9
						c116.5-35.3,239.8,31.3,275.3,148.6C632,458.9,566.3,582.7,449.8,617.9z"/>
				</g>
			</g>
		</g>
	</g>
	<g>
		<g>
			<g>
				<path class="st6" d="M420.7,628.9c-2.1-28.6-3.6-49.6-3.6-49.6l-94.2,113.4L432,786.2c0,0-1.4-20.2-3.4-47.9"/>
			</g>
			<g>
				<path class="st2" d="M420.7,628.9c-2.1-28.6-3.6-49.6-3.6-49.6l-94.2,113.4L432,786.2c0,0-1.4-20.2-3.4-47.9"/>
			</g>
		</g>
		<polygon class="st22" points="420.7,628.9 425.3,628.4 425.4,628.8 420.6,629.7 		"/>
	</g>
	<g>
		<g>
			<g>
				<path class="st8" d="M163.2,438.1c1.3-0.1,2-0.2,2-0.2l50.5-4.9L100,341.6L9.3,453l39.7-3.9c0,0,0.7-0.1,2.1-0.2"/>
			</g>
			<g>
				<path class="st2" d="M163.2,438.1c1.3-0.1,2-0.2,2-0.2l50.5-4.9L100,341.6L9.3,453l39.7-3.9c0,0,0.7-0.1,2.1-0.2"/>
			</g>
		</g>
	</g>
	<polygon class="st23" points="162.9,438.2 162.6,433.6 163.5,433.6 163.5,438.1 	"/>
	<g>
		<g>
			<g>
				<path class="st1" d="M349.4,182c0.2,1.3,0.4,2,0.4,2l8.7,50.5l97.5-123.8L322.8,28.2l6.9,39.7c0,0,0.1,0.7,0.4,2.1"/>
			</g>
			<g>
				<path class="st2" d="M349.4,182c0.2,1.3,0.4,2,0.4,2l8.7,50.5l97.5-123.8L322.8,28.2l6.9,39.7c0,0,0.1,0.7,0.4,2.1"/>
			</g>
		</g>
	</g>
	<g>
		<g>
			<g>
				<path class="st4" d="M604.9,385c-29.9,2.5-51.8,4.3-51.8,4.3L671.6,499L769,371.5c0,0-21,1.7-50,4.1"/>
			</g>
			<g>
				<path class="st2" d="M604.9,385c-29.9,2.5-51.8,4.3-51.8,4.3L671.6,499L769,371.5c0,0-21,1.7-50,4.1"/>
			</g>
		</g>
		<polygon class="st24" points="604.9,385 604.3,379.7 604.7,379.6 605.7,385.2 		"/>
	</g>
</g>
<g id="Layer_11">
	<g>
		<path class="st25" d="M256,349h77v24.3h-26.2v90.1h-24.7v-90.1H256V349z"/>
		<path class="st25" d="M345.6,349h37.7c11.5,0,20.5,3,27.2,9.1c6.7,6,10,14.2,10,24.5c0,5.9-1.5,12-4.6,18.3
			c-3.1,6.3-8.7,11.3-16.9,14.9l32,47.7h-28.3L373,419.2h-2.8v44.3h-24.7V349z M370.4,369.4v29.8h5.3c12.9,0,19.3-5.3,19.3-15.8
			c0-4.3-1.7-7.7-5-10.2s-8-3.8-13.9-3.8H370.4z"/>
		<path class="st25" d="M516.8,355.1V383c-12.4-7.4-23.2-11.2-32.5-11.2c-9.3,0-16.7,3.2-22.3,9.6c-5.6,6.4-8.4,15-8.4,25.8
			c0,10.2,2.9,18.4,8.8,24.5c5.9,6.1,13.7,9.2,23.5,9.2c8.6,0,18.9-3.5,30.8-10.4v27.7c-13.4,4.5-24.6,6.7-33.6,6.7
			c-15.4,0-28.5-5.6-39.2-16.9c-10.7-11.3-16.1-25.1-16.1-41.4c0-16.6,5.5-30.6,16.4-42c11-11.5,24.3-17.2,40-17.2
			C494.4,347.5,505.2,350,516.8,355.1z"/>
	</g>
</g>
</svg>
