<?xml version="1.0" encoding="utf-8"?>
<!-- Generator: Adobe Illustrator 26.5.0, SVG Export Plug-In . SVG Version: 6.00 Build 0)  -->
<svg version="1.1" xmlns="http://www.w3.org/2000/svg" xmlns:xlink="http://www.w3.org/1999/xlink" x="0px" y="0px"
	 viewBox="0 0 792 792" style="enable-background:new 0 0 792 792;" xml:space="preserve">
<style type="text/css">
	.st0{clip-path:url(#SVGID_00000075146423918522986600000007107860921688469151_);}
	.st1{fill:#C1272D;}
	.st2{fill:none;stroke:#FFFFFF;stroke-width:9;}
	.st3{clip-path:url(#SVGID_00000178898349246512525730000006136317347914046364_);}
	.st4{fill:#9F191C;}
	.st5{clip-path:url(#SVGID_00000156576918438791637290000005667268010631685817_);}
	.st6{fill:#761011;}
	.st7{clip-path:url(#SVGID_00000124152851921997361100000010591919453105366162_);}
	.st8{fill:#ED1E24;}
	.st9{fill:#FFFFFF;stroke:#FFFFFF;stroke-width:9;stroke-linecap:round;stroke-linejoin:round;}
	.st10{display:none;}
	.st11{display:inline;}
	
		.st12{display:inline;clip-path:url(#CLIPPING_00000070117097560271339640000013935038114296169900_);fill:url(#SVGID_00000144322100780269213050000002536917684787447947_);}
	
		.st13{display:inline;clip-path:url(#CLIPPING_00000070117097560271339640000013935038114296169900_);fill:url(#SVGID_00000101100470766687584120000013115970719362051465_);}
	
		.st14{display:inline;clip-path:url(#CLIPPING_00000070117097560271339640000013935038114296169900_);fill:url(#SVGID_00000183941473551822496880000006799108631723836570_);}
	
		.st15{display:inline;clip-path:url(#CLIPPING_00000070117097560271339640000013935038114296169900_);fill:url(#SVGID_00000123438881236151498500000014278132439286451073_);}
	
		.st16{display:inline;clip-path:url(#CLIPPING_00000070117097560271339640000013935038114296169900_);fill:url(#SVGID_00000181085290084271136380000015965952536422946993_);}
	
		.st17{display:inline;clip-path:url(#CLIPPING_00000070117097560271339640000013935038114296169900_);fill:url(#SVGID_00000044140686998767392160000002902526891342665360_);}
	
		.st18{display:inline;clip-path:url(#CLIPPING_00000070117097560271339640000013935038114296169900_);fill:url(#SVGID_00000125595184302595298060000013389213552164489352_);}
	
		.st19{display:inline;clip-path:url(#CLIPPING_00000070117097560271339640000013935038114296169900_);fill:url(#SVGID_00000093170603236067092680000007515226482860869037_);}
	.st20{display:inline;clip-path:url(#CLIPPING_00000070117097560271339640000013935038114296169900_);}
	.st21{fill:none;stroke:#FFFFFF;stroke-width:9;stroke-linecap:round;stroke-linejoin:round;}
	.st22{fill:#C1272D;stroke:#FFFFFF;stroke-width:9;}
	.st23{fill:#9F191C;stroke:#FFFFFF;stroke-width:9;}
	.st24{fill:#27235E;}
	.st25{fill:#AABC3A;}
	.st26{fill:#FFFFFF;}
	.st27{fill:#282867;}
</style>
<g id="Layer_8">
	<g>
		<defs>
			<rect id="SVGID_1_" x="36.3" y="59.8" width="336.4" height="349.9"/>
		</defs>
		<clipPath id="SVGID_00000147904988264116627680000003510702494641328534_">
			<use xlink:href="#SVGID_1_"  style="overflow:visible;"/>
		</clipPath>
		<g style="clip-path:url(#SVGID_00000147904988264116627680000003510702494641328534_);">
			<g>
				<path class="st1" d="M44,406c0,190.1,154.1,344.2,344.2,344.2c190.1,0,344.3-154.1,344.3-344.2c0-190.1-154.1-344.2-344.3-344.2
					C198.1,61.7,44,215.8,44,406"/>
			</g>
			<g>
				<path class="st2" d="M44,406c0,190.1,154.1,344.2,344.2,344.2c190.1,0,344.3-154.1,344.3-344.2c0-190.1-154.1-344.2-344.3-344.2
					C198.1,61.7,44,215.8,44,406"/>
			</g>
		</g>
	</g>
	<g>
		<defs>
			<rect id="SVGID_00000158720347095906461770000016625363064986443686_" x="386.5" y="47.7" width="372.4" height="336.4"/>
		</defs>
		<clipPath id="SVGID_00000091008199852898737670000017542985010398811278_">
			<use xlink:href="#SVGID_00000158720347095906461770000016625363064986443686_"  style="overflow:visible;"/>
		</clipPath>
		<g style="clip-path:url(#SVGID_00000091008199852898737670000017542985010398811278_);">
			<g>
				<path class="st4" d="M36.4,401.5c0,190.1,154.1,344.2,344.3,344.2c190.1,0,344.2-154.1,344.2-344.2
					c0-190.1-154.1-344.2-344.2-344.2C190.5,57.2,36.4,211.3,36.4,401.5"/>
			</g>
			<g>
				<path class="st2" d="M36.4,401.5c0,190.1,154.1,344.2,344.3,344.2c190.1,0,344.2-154.1,344.2-344.2
					c0-190.1-154.1-344.2-344.2-344.2C190.5,57.2,36.4,211.3,36.4,401.5"/>
			</g>
		</g>
	</g>
	<g>
		<defs>
			<rect id="SVGID_00000011009031537425833290000005011987426919665285_" x="402.7" y="398" width="331.9" height="348.8"/>
		</defs>
		<clipPath id="SVGID_00000149381582499448754040000002355263599491823282_">
			<use xlink:href="#SVGID_00000011009031537425833290000005011987426919665285_"  style="overflow:visible;"/>
		</clipPath>
		<g style="clip-path:url(#SVGID_00000149381582499448754040000002355263599491823282_);">
			<g>
				<path class="st6" d="M40.6,401.5c0,190.1,154.1,344.2,344.3,344.2c190.1,0,344.2-154.1,344.2-344.2
					c0-190.1-154.1-344.2-344.2-344.2C194.7,57.2,40.6,211.3,40.6,401.5"/>
			</g>
			<g>
				<path class="st2" d="M40.6,401.5c0,190.1,154.1,344.2,344.3,344.2c190.1,0,344.2-154.1,344.2-344.2
					c0-190.1-154.1-344.2-344.2-344.2C194.7,57.2,40.6,211.3,40.6,401.5"/>
			</g>
		</g>
	</g>
	<g>
		<defs>
			<rect id="SVGID_00000095303651453160177940000010305979291010770579_" x="11.5" y="432.8" width="371.2" height="316.1"/>
		</defs>
		<clipPath id="SVGID_00000145018273081315333480000014310869136562461067_">
			<use xlink:href="#SVGID_00000095303651453160177940000010305979291010770579_"  style="overflow:visible;"/>
		</clipPath>
		<g style="clip-path:url(#SVGID_00000145018273081315333480000014310869136562461067_);">
			<g>
				<path class="st8" d="M42.9,399.2c0,190.1,154.1,344.2,344.3,344.2c190.1,0,344.2-154.1,344.2-344.2
					C731.3,209.1,577.2,55,387.1,55C197,55,42.9,209.1,42.9,399.2"/>
			</g>
			<g>
				<path class="st2" d="M42.9,399.2c0,190.1,154.1,344.2,344.3,344.2c190.1,0,344.2-154.1,344.2-344.2
					C731.3,209.1,577.2,55,387.1,55C197,55,42.9,209.1,42.9,399.2"/>
			</g>
		</g>
	</g>
</g>
<g id="Layer_7">
	<g>
		<path class="st9" d="M449.8,617.9c-116.5,35.3-239.8-31.3-275.3-148.6C139,351.9,204.7,228.2,321.2,192.9
			c116.5-35.3,239.8,31.3,275.3,148.6C632,458.9,566.3,582.7,449.8,617.9z"/>
		<g class="st10">
			<defs>
				<path id="CLIPPING" d="M449.8,617.9c-116.5,35.3-239.8-31.3-275.3-148.6C139,351.9,204.7,228.2,321.2,192.9
					c116.5-35.3,239.8,31.3,275.3,148.6C632,458.9,566.3,582.7,449.8,617.9z"/>
			</defs>
			<clipPath id="CLIPPING_00000122689389883591864670000011883102577171264676_" class="st11">
				<use xlink:href="#CLIPPING"  style="overflow:visible;"/>
			</clipPath>
			
				<linearGradient id="SVGID_00000003825483288587191210000004743315435054532492_" gradientUnits="userSpaceOnUse" x1="160.6553" y1="405.6963" x2="211.6802" y2="405.6963">
				<stop  offset="0" style="stop-color:#DFDFE0"/>
				<stop  offset="0.5" style="stop-color:#FFFFFF"/>
				<stop  offset="1" style="stop-color:#DFDFE0"/>
			</linearGradient>
			
				<rect x="160.7" y="177.9" style="display:inline;clip-path:url(#CLIPPING_00000122689389883591864670000011883102577171264676_);fill:url(#SVGID_00000003825483288587191210000004743315435054532492_);" width="51" height="455.7"/>
			
				<linearGradient id="SVGID_00000054235667059507206360000013330425035939571603_" gradientUnits="userSpaceOnUse" x1="559.4619" y1="405.6963" x2="610.4844" y2="405.6963">
				<stop  offset="4.132230e-03" style="stop-color:#DFDFE0"/>
				<stop  offset="0.5" style="stop-color:#FFFFFF"/>
				<stop  offset="1" style="stop-color:#EEEDEE"/>
			</linearGradient>
			
				<rect x="559.5" y="177.9" style="display:inline;clip-path:url(#CLIPPING_00000122689389883591864670000011883102577171264676_);fill:url(#SVGID_00000054235667059507206360000013330425035939571603_);" width="51" height="455.7"/>
			
				<linearGradient id="SVGID_00000082330738390383854820000005888524544619346580_" gradientUnits="userSpaceOnUse" x1="502.4902" y1="405.6963" x2="553.5137" y2="405.6963">
				<stop  offset="0" style="stop-color:#DFDFE0"/>
				<stop  offset="0.5" style="stop-color:#FFFFFF"/>
				<stop  offset="1" style="stop-color:#DFDFE0"/>
			</linearGradient>
			
				<rect x="502.5" y="177.9" style="display:inline;clip-path:url(#CLIPPING_00000122689389883591864670000011883102577171264676_);fill:url(#SVGID_00000082330738390383854820000005888524544619346580_);" width="51" height="455.7"/>
			
				<linearGradient id="SVGID_00000023251256609324381030000009542393828761869732_" gradientUnits="userSpaceOnUse" x1="331.5718" y1="405.6963" x2="382.5967" y2="405.6963">
				<stop  offset="0" style="stop-color:#DFDFE0"/>
				<stop  offset="0.5" style="stop-color:#FFFFFF"/>
				<stop  offset="1" style="stop-color:#DFDFE0"/>
			</linearGradient>
			
				<rect x="331.6" y="177.9" style="display:inline;clip-path:url(#CLIPPING_00000122689389883591864670000011883102577171264676_);fill:url(#SVGID_00000023251256609324381030000009542393828761869732_);" width="51" height="455.7"/>
			
				<linearGradient id="SVGID_00000101787837164795122440000008017620685219025559_" gradientUnits="userSpaceOnUse" x1="274.5996" y1="405.6963" x2="325.6245" y2="405.6963">
				<stop  offset="0" style="stop-color:#DFDFE0"/>
				<stop  offset="0.5" style="stop-color:#FFFFFF"/>
				<stop  offset="1" style="stop-color:#DFDFE0"/>
			</linearGradient>
			
				<rect x="274.6" y="177.9" style="display:inline;clip-path:url(#CLIPPING_00000122689389883591864670000011883102577171264676_);fill:url(#SVGID_00000101787837164795122440000008017620685219025559_);" width="51" height="455.7"/>
			
				<linearGradient id="SVGID_00000095296535146503902560000013539378503993364891_" gradientUnits="userSpaceOnUse" x1="217.627" y1="405.6963" x2="268.6519" y2="405.6963">
				<stop  offset="0" style="stop-color:#DFDFE0"/>
				<stop  offset="0.5" style="stop-color:#FFFFFF"/>
				<stop  offset="1" style="stop-color:#DFDFE0"/>
			</linearGradient>
			
				<rect x="217.6" y="177.9" style="display:inline;clip-path:url(#CLIPPING_00000122689389883591864670000011883102577171264676_);fill:url(#SVGID_00000095296535146503902560000013539378503993364891_);" width="51" height="455.7"/>
			
				<linearGradient id="SVGID_00000066515822891155808870000008461520061597534374_" gradientUnits="userSpaceOnUse" x1="445.5176" y1="405.6963" x2="496.5391" y2="405.6963">
				<stop  offset="0" style="stop-color:#DFDFE0"/>
				<stop  offset="0.5" style="stop-color:#FFFFFF"/>
				<stop  offset="1" style="stop-color:#DFDFE0"/>
			</linearGradient>
			
				<rect x="445.5" y="177.9" style="display:inline;clip-path:url(#CLIPPING_00000122689389883591864670000011883102577171264676_);fill:url(#SVGID_00000066515822891155808870000008461520061597534374_);" width="51" height="455.7"/>
			
				<linearGradient id="SVGID_00000045616196006121667110000010891207924162844324_" gradientUnits="userSpaceOnUse" x1="388.5454" y1="405.6963" x2="439.5684" y2="405.6963">
				<stop  offset="0" style="stop-color:#DFDFE0"/>
				<stop  offset="0.5" style="stop-color:#FFFFFF"/>
				<stop  offset="1" style="stop-color:#DFDFE0"/>
			</linearGradient>
			
				<rect x="388.5" y="177.9" style="display:inline;clip-path:url(#CLIPPING_00000122689389883591864670000011883102577171264676_);fill:url(#SVGID_00000045616196006121667110000010891207924162844324_);" width="51" height="455.7"/>
			<g style="display:inline;clip-path:url(#CLIPPING_00000122689389883591864670000011883102577171264676_);">
				
					<image style="overflow:visible;opacity:0.86;" width="557" height="560" xlink:href="75DD7F494908CE2E.png"  transform="matrix(1 0 0 1 107.2632 125.7983)">
				</image>
				<g>
					<path class="st21" d="M449.8,617.9c-116.5,35.3-239.8-31.3-275.3-148.6C139,351.9,204.7,228.2,321.2,192.9
						c116.5-35.3,239.8,31.3,275.3,148.6C632,458.9,566.3,582.7,449.8,617.9z"/>
				</g>
			</g>
		</g>
	</g>
	<g>
		<path class="st22" d="M353.9,181.2c1.7,26.5,3,45.5,3,45.5l93.4-112.9L343.4,19.7c0,0,1.3,21.8,3.1,49.1"/>
		<polygon class="st1" points="349.1,181.9 359.7,180.7 359.2,178.2 348.5,179.1 		"/>
	</g>
	<g>
		<path class="st23" d="M607.9,371.7c-27.9,3.8-48.9,6.7-48.9,6.7L678.3,465l86.2-115c0,0-19.8,2.7-47.1,6.5"/>
		<polygon class="st24" points="607.2,367.3 607.9,371.7 609.2,372.9 609,367.1 		"/>
	</g>
	<g>
		<g>
			<g>
				<path class="st6" d="M420.7,628.9c-2.1-28.6-3.6-49.6-3.6-49.6l-94.2,113.4L432,786.2c0,0-1.4-20.2-3.4-47.9"/>
			</g>
			<g>
				<path class="st2" d="M420.7,628.9c-2.1-28.6-3.6-49.6-3.6-49.6l-94.2,113.4L432,786.2c0,0-1.4-20.2-3.4-47.9"/>
			</g>
		</g>
		<polygon class="st25" points="420.7,628.9 425.3,628.4 425.4,628.8 420.6,629.7 		"/>
	</g>
	<g>
		<g>
			<g>
				<path class="st8" d="M163.2,438.1c1.3-0.1,2-0.2,2-0.2l50.5-4.9L100,341.6L9.3,453l39.7-3.9c0,0,0.7-0.1,2.1-0.2"/>
			</g>
			<g>
				<path class="st2" d="M163.2,438.1c1.3-0.1,2-0.2,2-0.2l50.5-4.9L100,341.6L9.3,453l39.7-3.9c0,0,0.7-0.1,2.1-0.2"/>
			</g>
		</g>
	</g>
	<polygon class="st26" points="162.9,438.2 162.6,433.6 163.5,433.6 163.5,438.1 	"/>
</g>
<g id="Layer_11">
	<g>
		<path class="st27" d="M256,349h77v24.3h-26.2v90.1h-24.7v-90.1H256V349z"/>
		<path class="st27" d="M345.6,349h37.7c11.5,0,20.5,3,27.2,9.1c6.7,6,10,14.2,10,24.5c0,5.9-1.5,12-4.6,18.3
			c-3.1,6.3-8.7,11.3-16.9,14.9l32,47.7h-28.3L373,419.2h-2.8v44.3h-24.7V349z M370.4,369.4v29.8h5.3c12.9,0,19.3-5.3,19.3-15.8
			c0-4.3-1.7-7.7-5-10.2s-8-3.8-13.9-3.8H370.4z"/>
		<path class="st27" d="M516.8,355.1V383c-12.4-7.4-23.2-11.2-32.5-11.2c-9.3,0-16.7,3.2-22.3,9.6c-5.6,6.4-8.4,15-8.4,25.8
			c0,10.2,2.9,18.4,8.8,24.5c5.9,6.1,13.7,9.2,23.5,9.2c8.6,0,18.9-3.5,30.8-10.4v27.7c-13.4,4.5-24.6,6.7-33.6,6.7
			c-15.4,0-28.5-5.6-39.2-16.9c-10.7-11.3-16.1-25.1-16.1-41.4c0-16.6,5.5-30.6,16.4-42c11-11.5,24.3-17.2,40-17.2
			C494.4,347.5,505.2,350,516.8,355.1z"/>
	</g>
</g>
</svg>
