<?xml version="1.0" encoding="utf-8"?>
<!-- Generator: Adobe Illustrator 26.5.0, SVG Export Plug-In . SVG Version: 6.00 Build 0)  -->
<svg version="1.1" id="Layer_1" xmlns="http://www.w3.org/2000/svg" xmlns:xlink="http://www.w3.org/1999/xlink" x="0px" y="0px"
	 viewBox="0 0 789.9 792.7" style="enable-background:new 0 0 789.9 792.7;" xml:space="preserve">
<style type="text/css">
	.st0{clip-path:url(#SVGID_00000062171123848248689970000004263419203348652689_);}
	.st1{fill:#C1272D;}
	.st2{fill:none;stroke:#FFFFFF;stroke-width:9;}
	.st3{clip-path:url(#SVGID_00000022542518438051555310000000160183636415721615_);}
	.st4{fill:#27235E;}
	.st5{clip-path:url(#SVGID_00000177447610340169670290000008717335523579799186_);}
	.st6{fill:#5F843A;}
	.st7{clip-path:url(#SVGID_00000045590540903686995880000005927278240571375531_);}
	.st8{fill:#EFB02C;}
	.st9{fill:#FFFFFF;stroke:#FFFFFF;stroke-width:9;stroke-linecap:round;stroke-linejoin:round;}
	.st10{display:none;}
	.st11{display:inline;}
	
		.st12{clip-path:url(#SVGID_00000093867970801985318530000016910695125311928964_);fill:url(#SVGID_00000121261771289776969560000008116592446841106612_);}
	
		.st13{clip-path:url(#SVGID_00000132075724132436266460000012366437283266609555_);fill:url(#SVGID_00000018212100819690512970000003670950573169158542_);}
	
		.st14{clip-path:url(#SVGID_00000173840617374745353650000015254114272983054234_);fill:url(#SVGID_00000057870557466705174580000018008716869924329645_);}
	
		.st15{clip-path:url(#SVGID_00000003786506298493657550000014258230385628328342_);fill:url(#SVGID_00000148659327175426458370000003999639736832484530_);}
	
		.st16{clip-path:url(#SVGID_00000098185700780971674030000008030981142806162822_);fill:url(#SVGID_00000182503594420393042360000005909042790628157859_);}
	
		.st17{clip-path:url(#SVGID_00000152251692097531397760000018021724629831654037_);fill:url(#SVGID_00000018206424186545546100000009403513055408104332_);}
	
		.st18{clip-path:url(#SVGID_00000028308668371868019740000001311960214715693700_);fill:url(#SVGID_00000160178631914450139510000002594106355315357851_);}
	
		.st19{clip-path:url(#SVGID_00000084519768022043869500000000802280454409466007_);fill:url(#SVGID_00000098220376749545250250000002958460004575267489_);}
	.st20{clip-path:url(#SVGID_00000039816906183336203120000016819422237942518963_);}
	.st21{fill:none;stroke:#FFFFFF;stroke-width:9;stroke-linecap:round;stroke-linejoin:round;}
	.st22{fill:#C1272D;stroke:#FFFFFF;stroke-width:9;}
	.st23{fill:#27235E;stroke:#FFFFFF;stroke-width:9;}
	.st24{fill:#AABC3A;}
	.st25{fill:#FFFFFF;}
	.st26{fill:#282867;}
	.st27{fill:none;stroke:#282867;stroke-width:2;stroke-miterlimit:10;}
</style>
<g id="Layer_8">
	<g>
		<g>
			<g>
				<defs>
					<rect id="SVGID_1_" x="38.2" y="46.6" width="336.4" height="349.9"/>
				</defs>
				<clipPath id="SVGID_00000024693087196794291130000009610477690181761425_">
					<use xlink:href="#SVGID_1_"  style="overflow:visible;"/>
				</clipPath>
				<g style="clip-path:url(#SVGID_00000024693087196794291130000009610477690181761425_);">
					<g>
						<path class="st1" d="M45.9,392.8C45.9,582.9,200,737,390.1,737s344.3-154.1,344.3-344.2S580.3,48.6,390.1,48.6
							C200,48.5,45.9,202.6,45.9,392.8"/>
					</g>
					<g>
						<path class="st2" d="M45.9,392.8C45.9,582.9,200,737,390.1,737s344.3-154.1,344.3-344.2S580.3,48.6,390.1,48.6
							C200,48.5,45.9,202.6,45.9,392.8"/>
					</g>
				</g>
			</g>
		</g>
	</g>
	<g>
		<g>
			<g>
				<defs>
					<rect id="SVGID_00000049182089134286760520000013488617224100193192_" x="388.4" y="34.5" width="372.4" height="336.4"/>
				</defs>
				<clipPath id="SVGID_00000170997784894802699870000007605779191119502236_">
					<use xlink:href="#SVGID_00000049182089134286760520000013488617224100193192_"  style="overflow:visible;"/>
				</clipPath>
				<g style="clip-path:url(#SVGID_00000170997784894802699870000007605779191119502236_);">
					<g>
						<path class="st4" d="M38.3,388.3c0,190.1,154.1,344.2,344.3,344.2c190.1,0,344.2-154.1,344.2-344.2S572.7,44.1,382.6,44.1
							C192.4,44,38.3,198.1,38.3,388.3"/>
					</g>
					<g>
						<path class="st2" d="M38.3,388.3c0,190.1,154.1,344.2,344.3,344.2c190.1,0,344.2-154.1,344.2-344.2S572.7,44.1,382.6,44.1
							C192.4,44,38.3,198.1,38.3,388.3"/>
					</g>
				</g>
			</g>
		</g>
	</g>
	<g>
		<g>
			<g>
				<defs>
					<rect id="SVGID_00000039130518786271153960000003180883211359974334_" x="404.6" y="384.8" width="331.9" height="348.8"/>
				</defs>
				<clipPath id="SVGID_00000032608494011002728180000003162910045683562389_">
					<use xlink:href="#SVGID_00000039130518786271153960000003180883211359974334_"  style="overflow:visible;"/>
				</clipPath>
				<g style="clip-path:url(#SVGID_00000032608494011002728180000003162910045683562389_);">
					<g>
						<path class="st6" d="M42.5,388.3c0,190.1,154.1,344.2,344.3,344.2c190.1,0,344.2-154.1,344.2-344.2S576.9,44.1,386.8,44.1
							C196.6,44,42.5,198.1,42.5,388.3"/>
					</g>
					<g>
						<path class="st2" d="M42.5,388.3c0,190.1,154.1,344.2,344.3,344.2c190.1,0,344.2-154.1,344.2-344.2S576.9,44.1,386.8,44.1
							C196.6,44,42.5,198.1,42.5,388.3"/>
					</g>
				</g>
			</g>
		</g>
	</g>
	<g>
		<g>
			<g>
				<defs>
					<rect id="SVGID_00000080176494974561473690000002913557228792908710_" x="13.4" y="419.6" width="371.2" height="316.1"/>
				</defs>
				<clipPath id="SVGID_00000016053640033207143280000014322039148233401984_">
					<use xlink:href="#SVGID_00000080176494974561473690000002913557228792908710_"  style="overflow:visible;"/>
				</clipPath>
				<g style="clip-path:url(#SVGID_00000016053640033207143280000014322039148233401984_);">
					<g>
						<path class="st8" d="M44.8,386c0,190.1,154.1,344.2,344.3,344.2c190.1,0,344.2-154.1,344.2-344.2
							C733.2,195.9,579.1,41.8,389,41.8S44.8,195.9,44.8,386"/>
					</g>
					<g>
						<path class="st2" d="M44.8,386c0,190.1,154.1,344.2,344.3,344.2c190.1,0,344.2-154.1,344.2-344.2
							C733.2,195.9,579.1,41.8,389,41.8S44.8,195.9,44.8,386"/>
					</g>
				</g>
			</g>
		</g>
	</g>
</g>
<g id="Layer_7">
	<g>
		<path class="st9" d="M451.7,604.7C335.2,640,211.9,573.4,176.4,456.1C140.9,338.7,206.6,215,323.1,179.7S562.9,211,598.4,328.3
			C633.9,445.7,568.2,569.5,451.7,604.7z"/>
		<g class="st10">
			<g class="st11">
				<g>
					<defs>
						<path id="SVGID_00000029032051361493735380000001207147348057585081_" d="M451.7,604.7C335.2,640,211.9,573.4,176.4,456.1
							C140.9,338.7,206.6,215,323.1,179.7S562.9,211,598.4,328.3C633.9,445.7,568.2,569.5,451.7,604.7z"/>
					</defs>
					<clipPath id="SVGID_00000109746369161766560990000010562477896383124668_">
						<use xlink:href="#SVGID_00000029032051361493735380000001207147348057585081_"  style="overflow:visible;"/>
					</clipPath>
					
						<linearGradient id="SVGID_00000044895170175534321260000011895321298130125700_" gradientUnits="userSpaceOnUse" x1="162.6" y1="416.742" x2="213.6" y2="416.742" gradientTransform="matrix(1 0 0 1 0 -24.192)">
						<stop  offset="0" style="stop-color:#DFDFE0"/>
						<stop  offset="0.5" style="stop-color:#FFFFFF"/>
						<stop  offset="1" style="stop-color:#DFDFE0"/>
					</linearGradient>
					
						<rect x="162.6" y="164.7" style="clip-path:url(#SVGID_00000109746369161766560990000010562477896383124668_);fill:url(#SVGID_00000044895170175534321260000011895321298130125700_);" width="51" height="455.7"/>
				</g>
			</g>
			<g class="st11">
				<g>
					<defs>
						<path id="SVGID_00000086665452650629449810000018305965171947148478_" d="M451.7,604.7C335.2,640,211.9,573.4,176.4,456.1
							C140.9,338.7,206.6,215,323.1,179.7S562.9,211,598.4,328.3C633.9,445.7,568.2,569.5,451.7,604.7z"/>
					</defs>
					<clipPath id="SVGID_00000072966747871172735620000012693374359866326163_">
						<use xlink:href="#SVGID_00000086665452650629449810000018305965171947148478_"  style="overflow:visible;"/>
					</clipPath>
					
						<linearGradient id="SVGID_00000172423899092000423800000013628755532860751530_" gradientUnits="userSpaceOnUse" x1="561.4" y1="416.742" x2="612.4" y2="416.742" gradientTransform="matrix(1 0 0 1 0 -24.192)">
						<stop  offset="4.132230e-03" style="stop-color:#DFDFE0"/>
						<stop  offset="0.5" style="stop-color:#FFFFFF"/>
						<stop  offset="1" style="stop-color:#EEEDEE"/>
					</linearGradient>
					
						<rect x="561.4" y="164.7" style="clip-path:url(#SVGID_00000072966747871172735620000012693374359866326163_);fill:url(#SVGID_00000172423899092000423800000013628755532860751530_);" width="51" height="455.7"/>
				</g>
			</g>
			<g class="st11">
				<g>
					<defs>
						<path id="SVGID_00000040558220135899222850000015421727311281233299_" d="M451.7,604.7C335.2,640,211.9,573.4,176.4,456.1
							C140.9,338.7,206.6,215,323.1,179.7S562.9,211,598.4,328.3C633.9,445.7,568.2,569.5,451.7,604.7z"/>
					</defs>
					<clipPath id="SVGID_00000039092054554581998210000017958758132741874612_">
						<use xlink:href="#SVGID_00000040558220135899222850000015421727311281233299_"  style="overflow:visible;"/>
					</clipPath>
					
						<linearGradient id="SVGID_00000075147602630461434010000004406680864644375425_" gradientUnits="userSpaceOnUse" x1="504.4" y1="416.742" x2="555.4" y2="416.742" gradientTransform="matrix(1 0 0 1 0 -24.192)">
						<stop  offset="0" style="stop-color:#DFDFE0"/>
						<stop  offset="0.5" style="stop-color:#FFFFFF"/>
						<stop  offset="1" style="stop-color:#DFDFE0"/>
					</linearGradient>
					
						<rect x="504.4" y="164.7" style="clip-path:url(#SVGID_00000039092054554581998210000017958758132741874612_);fill:url(#SVGID_00000075147602630461434010000004406680864644375425_);" width="51" height="455.7"/>
				</g>
			</g>
			<g class="st11">
				<g>
					<defs>
						<path id="SVGID_00000035500303725259355210000012625999657859869859_" d="M451.7,604.7C335.2,640,211.9,573.4,176.4,456.1
							C140.9,338.7,206.6,215,323.1,179.7S562.9,211,598.4,328.3C633.9,445.7,568.2,569.5,451.7,604.7z"/>
					</defs>
					<clipPath id="SVGID_00000124134981156509026590000004357238420966160316_">
						<use xlink:href="#SVGID_00000035500303725259355210000012625999657859869859_"  style="overflow:visible;"/>
					</clipPath>
					
						<linearGradient id="SVGID_00000163777426367508397810000010153476800638473602_" gradientUnits="userSpaceOnUse" x1="333.5" y1="416.742" x2="384.5" y2="416.742" gradientTransform="matrix(1 0 0 1 0 -24.192)">
						<stop  offset="0" style="stop-color:#DFDFE0"/>
						<stop  offset="0.5" style="stop-color:#FFFFFF"/>
						<stop  offset="1" style="stop-color:#DFDFE0"/>
					</linearGradient>
					
						<rect x="333.5" y="164.7" style="clip-path:url(#SVGID_00000124134981156509026590000004357238420966160316_);fill:url(#SVGID_00000163777426367508397810000010153476800638473602_);" width="51" height="455.7"/>
				</g>
			</g>
			<g class="st11">
				<g>
					<defs>
						<path id="SVGID_00000085222250132396344010000016136424607833605003_" d="M451.7,604.7C335.2,640,211.9,573.4,176.4,456.1
							C140.9,338.7,206.6,215,323.1,179.7S562.9,211,598.4,328.3C633.9,445.7,568.2,569.5,451.7,604.7z"/>
					</defs>
					<clipPath id="SVGID_00000115477979209448645350000001118788736553523134_">
						<use xlink:href="#SVGID_00000085222250132396344010000016136424607833605003_"  style="overflow:visible;"/>
					</clipPath>
					
						<linearGradient id="SVGID_00000171691034423077845010000007021564083756495235_" gradientUnits="userSpaceOnUse" x1="276.5" y1="416.742" x2="327.5" y2="416.742" gradientTransform="matrix(1 0 0 1 0 -24.192)">
						<stop  offset="0" style="stop-color:#DFDFE0"/>
						<stop  offset="0.5" style="stop-color:#FFFFFF"/>
						<stop  offset="1" style="stop-color:#DFDFE0"/>
					</linearGradient>
					
						<rect x="276.5" y="164.7" style="clip-path:url(#SVGID_00000115477979209448645350000001118788736553523134_);fill:url(#SVGID_00000171691034423077845010000007021564083756495235_);" width="51" height="455.7"/>
				</g>
			</g>
			<g class="st11">
				<g>
					<defs>
						<path id="SVGID_00000051360640602517631830000017279031122446952862_" d="M451.7,604.7C335.2,640,211.9,573.4,176.4,456.1
							C140.9,338.7,206.6,215,323.1,179.7S562.9,211,598.4,328.3C633.9,445.7,568.2,569.5,451.7,604.7z"/>
					</defs>
					<clipPath id="SVGID_00000015329634215863489610000013645406754618627507_">
						<use xlink:href="#SVGID_00000051360640602517631830000017279031122446952862_"  style="overflow:visible;"/>
					</clipPath>
					
						<linearGradient id="SVGID_00000176736174975716370100000003949360349219977652_" gradientUnits="userSpaceOnUse" x1="219.5" y1="416.742" x2="270.5" y2="416.742" gradientTransform="matrix(1 0 0 1 0 -24.192)">
						<stop  offset="0" style="stop-color:#DFDFE0"/>
						<stop  offset="0.5" style="stop-color:#FFFFFF"/>
						<stop  offset="1" style="stop-color:#DFDFE0"/>
					</linearGradient>
					
						<rect x="219.5" y="164.7" style="clip-path:url(#SVGID_00000015329634215863489610000013645406754618627507_);fill:url(#SVGID_00000176736174975716370100000003949360349219977652_);" width="51" height="455.7"/>
				</g>
			</g>
			<g class="st11">
				<g>
					<defs>
						<path id="SVGID_00000120557088868825877120000005260003557702319539_" d="M451.7,604.7C335.2,640,211.9,573.4,176.4,456.1
							C140.9,338.7,206.6,215,323.1,179.7S562.9,211,598.4,328.3C633.9,445.7,568.2,569.5,451.7,604.7z"/>
					</defs>
					<clipPath id="SVGID_00000014621350671350539090000007528260141582193593_">
						<use xlink:href="#SVGID_00000120557088868825877120000005260003557702319539_"  style="overflow:visible;"/>
					</clipPath>
					
						<linearGradient id="SVGID_00000062912624791457113910000015959464155104526253_" gradientUnits="userSpaceOnUse" x1="447.4" y1="416.742" x2="498.4" y2="416.742" gradientTransform="matrix(1 0 0 1 0 -24.192)">
						<stop  offset="0" style="stop-color:#DFDFE0"/>
						<stop  offset="0.5" style="stop-color:#FFFFFF"/>
						<stop  offset="1" style="stop-color:#DFDFE0"/>
					</linearGradient>
					
						<rect x="447.4" y="164.7" style="clip-path:url(#SVGID_00000014621350671350539090000007528260141582193593_);fill:url(#SVGID_00000062912624791457113910000015959464155104526253_);" width="51" height="455.7"/>
				</g>
			</g>
			<g class="st11">
				<g>
					<defs>
						<path id="SVGID_00000056419312575213786830000008334516782785826444_" d="M451.7,604.7C335.2,640,211.9,573.4,176.4,456.1
							C140.9,338.7,206.6,215,323.1,179.7S562.9,211,598.4,328.3C633.9,445.7,568.2,569.5,451.7,604.7z"/>
					</defs>
					<clipPath id="SVGID_00000082341232633309445180000011398784545275901569_">
						<use xlink:href="#SVGID_00000056419312575213786830000008334516782785826444_"  style="overflow:visible;"/>
					</clipPath>
					
						<linearGradient id="SVGID_00000162343428536785802790000011955600999950471041_" gradientUnits="userSpaceOnUse" x1="390.4" y1="416.742" x2="441.4" y2="416.742" gradientTransform="matrix(1 0 0 1 0 -24.192)">
						<stop  offset="0" style="stop-color:#DFDFE0"/>
						<stop  offset="0.5" style="stop-color:#FFFFFF"/>
						<stop  offset="1" style="stop-color:#DFDFE0"/>
					</linearGradient>
					
						<rect x="390.4" y="164.7" style="clip-path:url(#SVGID_00000082341232633309445180000011398784545275901569_);fill:url(#SVGID_00000162343428536785802790000011955600999950471041_);" width="51" height="455.7"/>
				</g>
			</g>
			<g class="st11">
				<g>
					<defs>
						<path id="SVGID_00000047739902418152657850000012725952263848141735_" d="M451.7,604.7C335.2,640,211.9,573.4,176.4,456.1
							C140.9,338.7,206.6,215,323.1,179.7S562.9,211,598.4,328.3C633.9,445.7,568.2,569.5,451.7,604.7z"/>
					</defs>
					<clipPath id="SVGID_00000169551179160418221960000006316112930806963874_">
						<use xlink:href="#SVGID_00000047739902418152657850000012725952263848141735_"  style="overflow:visible;"/>
					</clipPath>
					<g style="clip-path:url(#SVGID_00000169551179160418221960000006316112930806963874_);">
						
							<image style="overflow:visible;opacity:0.86;enable-background:new    ;" width="558" height="561" xlink:href="47FC30D5A3FBBBEC.png"  transform="matrix(0.9982 0 0 0.9982 109.1986 112.617)">
						</image>
						<g>
							<path class="st21" d="M451.7,604.7C335.2,640,211.9,573.4,176.4,456.1C140.9,338.7,206.6,215,323.1,179.7
								S562.9,211,598.4,328.3C633.9,445.7,568.2,569.5,451.7,604.7z"/>
						</g>
					</g>
				</g>
			</g>
		</g>
	</g>
	<g>
		<path class="st22" d="M355.8,168c1.7,26.5,3,45.5,3,45.5l93.4-112.9L345.3,6.5c0,0,1.3,21.8,3.1,49.1"/>
		<polygon class="st1" points="351,168.7 361.6,167.5 361.1,165 350.4,165.9 		"/>
	</g>
	<g>
		<path class="st23" d="M609.8,358.5c-27.9,3.8-48.9,6.7-48.9,6.7l119.3,86.6l86.2-115c0,0-19.8,2.7-47.1,6.5"/>
		<polygon class="st4" points="609.1,354.1 609.8,358.5 611.1,359.7 610.9,353.9 		"/>
	</g>
	<g>
		<g>
			<g>
				<path class="st6" d="M422.6,615.7c-2.1-28.6-3.6-49.6-3.6-49.6l-94.2,113.4L433.9,773c0,0-1.4-20.2-3.4-47.9"/>
			</g>
			<g>
				<path class="st2" d="M422.6,615.7c-2.1-28.6-3.6-49.6-3.6-49.6l-94.2,113.4L433.9,773c0,0-1.4-20.2-3.4-47.9"/>
			</g>
		</g>
		<polygon class="st24" points="422.6,615.7 427.2,615.2 427.3,615.6 422.5,616.5 		"/>
	</g>
	<g>
		<g>
			<g>
				<path class="st8" d="M165.1,424.9c1.3-0.1,2-0.2,2-0.2l50.5-4.9l-115.7-91.4L11.2,439.8l39.7-3.9c0,0,0.7-0.1,2.1-0.2"/>
			</g>
			<g>
				<path class="st2" d="M165.1,424.9c1.3-0.1,2-0.2,2-0.2l50.5-4.9l-115.7-91.4L11.2,439.8l39.7-3.9c0,0,0.7-0.1,2.1-0.2"/>
			</g>
		</g>
	</g>
	<polygon class="st25" points="164.8,425 164.5,420.4 165.4,420.4 165.4,424.9 	"/>
</g>
<g id="Layer_11">
	<g>
		<path class="st26" d="M257.9,335.8h77v24.3h-26.2v90.1H284v-90.1h-26.1V335.8z"/>
		<path class="st26" d="M347.5,335.8h37.7c11.5,0,20.5,3,27.2,9.1c6.7,6,10,14.2,10,24.5c0,5.9-1.5,12-4.6,18.3s-8.7,11.3-16.9,14.9
			l32,47.7h-28.3L374.9,406h-2.8v44.3h-24.7L347.5,335.8L347.5,335.8z M372.3,356.2V386h5.3c12.9,0,19.3-5.3,19.3-15.8
			c0-4.3-1.7-7.7-5-10.2s-8-3.8-13.9-3.8H372.3z"/>
		<path class="st26" d="M518.7,341.9v27.9c-12.4-7.4-23.2-11.2-32.5-11.2s-16.7,3.2-22.3,9.6s-8.4,15-8.4,25.8
			c0,10.2,2.9,18.4,8.8,24.5c5.9,6.1,13.7,9.2,23.5,9.2c8.6,0,18.9-3.5,30.8-10.4V445c-13.4,4.5-24.6,6.7-33.6,6.7
			c-15.4,0-28.5-5.6-39.2-16.9s-16.1-25.1-16.1-41.4c0-16.6,5.5-30.6,16.4-42c11-11.5,24.3-17.2,40-17.2
			C496.3,334.3,507.1,336.8,518.7,341.9z"/>
	</g>
	<g>
		<g>
			<path class="st26" d="M456.9,739.7h4.1c1.2,0,2.2,0.3,2.9,1s1.1,1.5,1.1,2.7c0,0.6-0.2,1.3-0.5,2s-0.9,1.2-1.8,1.6l3.5,5.2h-3.1
				l-3.2-4.8h-0.3v4.8h-2.7V739.7z M459.6,741.9v3.2h0.6c1.4,0,2.1-0.6,2.1-1.7c0-0.5-0.2-0.8-0.5-1.1c-0.4-0.3-0.9-0.4-1.5-0.4
				H459.6z"/>
		</g>
		<circle class="st27" cx="460.6" cy="745.8" r="10"/>
	</g>
</g>
</svg>
